<svg width="372" height="370" viewBox="0 0 372 370" fill="none" xmlns="http://www.w3.org/2000/svg">
<g opacity="0.8">
<path d="M283.423 181.162L193.665 128.014C189.361 125.456 183.954 125.456 179.597 128.014L89.8388 181.162C86.6894 183.042 85.1147 186.226 85.1147 189.463V240.158C85.1147 243.394 86.6894 246.579 89.8388 248.459L179.597 301.607C183.902 304.165 189.308 304.165 193.665 301.607L283.423 248.459C286.573 246.579 288.148 243.394 288.148 240.158V189.463C288.148 186.226 286.573 183.042 283.423 181.162Z" fill="url(#paint0_linear_2181_10665)"/>
<path opacity="0.7" d="M319.327 169.311L195.712 242.455C189.728 246.005 182.327 246.005 176.343 242.455L52.7281 169.311C44.0147 164.143 44.0147 151.613 52.7281 146.496L176.343 73.3526C182.327 69.8024 189.728 69.8024 195.659 73.3526L319.274 146.496C327.988 151.665 327.988 164.195 319.274 169.311H319.327Z" fill="url(#paint1_linear_2181_10665)"/>
</g>
<defs>
<linearGradient id="paint0_linear_2181_10665" x1="298.095" y1="216.664" x2="75.1671" y2="216.664" gradientUnits="userSpaceOnUse">
<stop stop-color="#FFFAF0"/>
<stop offset="0.59" stop-color="#FAB00E"/>
</linearGradient>
<linearGradient id="paint1_linear_2181_10665" x1="149.205" y1="233.84" x2="248.172" y2="27.6182" gradientUnits="userSpaceOnUse">
<stop offset="0.23" stop-color="#FAB00E"/>
<stop offset="0.75" stop-color="#FFFAF0"/>
</linearGradient>
</defs>
</svg>
