<svg width="36" height="37" viewBox="0 0 36 37" fill="none" xmlns="http://www.w3.org/2000/svg">
<g id="event_note" clip-path="url(#clip0_679_5319)">
<path id="Vector" d="M24 15.5H12C11.175 15.5 10.5 16.175 10.5 17C10.5 17.825 11.175 18.5 12 18.5H24C24.825 18.5 25.5 17.825 25.5 17C25.5 16.175 24.825 15.5 24 15.5ZM28.5 5H27V3.5C27 2.675 26.325 2 25.5 2C24.675 2 24 2.675 24 3.5V5H12V3.5C12 2.675 11.325 2 10.5 2C9.675 2 9 2.675 9 3.5V5H7.5C5.835 5 4.5 6.35 4.5 8V29C4.5 30.65 5.835 32 7.5 32H28.5C30.15 32 31.5 30.65 31.5 29V8C31.5 6.35 30.15 5 28.5 5ZM27 29H9C8.175 29 7.5 28.325 7.5 27.5V12.5H28.5V27.5C28.5 28.325 27.825 29 27 29ZM19.5 21.5H12C11.175 21.5 10.5 22.175 10.5 23C10.5 23.825 11.175 24.5 12 24.5H19.5C20.325 24.5 21 23.825 21 23C21 22.175 20.325 21.5 19.5 21.5Z" fill="#CACACE"/>
</g>
<defs>
<clipPath id="clip0_679_5319">
<rect width="36" height="36" fill="#CACACE" transform="translate(0 0.5)"/>
</clipPath>
</defs>
</svg>
