<svg width="88" height="12" viewBox="0 0 88 12" fill="none" xmlns="http://www.w3.org/2000/svg">
<g clip-path="url(#clip0_1703_15262)">
<path d="M25.1251 5.59202L29.5383 0.837385L29.6057 0.763056V0.349609H26.8231L26.7464 0.433227L23.2762 4.29361V0.349609H20.8234V11.1643H23.2762V6.98799L27.1482 11.083L27.2249 11.162H29.989V10.6858L29.9193 10.6114L25.1251 5.5897V5.59202Z" fill="white"/>
<path d="M37.726 0.365234H37.4705V6.52281C37.4705 8.16494 36.6459 9.108 35.2081 9.108C33.6775 9.108 32.7995 8.16494 32.7995 6.52281V0.365234H30.3606V6.52281C30.3606 9.47732 32.2583 11.3843 35.1942 11.3843C38.1301 11.3843 39.9093 9.52144 39.9093 6.52281V0.365234H37.726Z" fill="white"/>
<path d="M46.0274 4.35512C44.5362 4.1786 43.9556 3.88594 43.9556 3.31454C43.9556 2.61772 44.657 2.20195 45.8346 2.20195C46.8799 2.20195 47.7602 2.72922 48.0598 3.22628L48.1829 3.43068L48.3966 3.32151L49.9413 2.52714L50.1642 2.41332L50.0527 2.18802C49.349 0.757214 47.8717 0 45.7766 0C43.6652 0.0162592 41.5353 1.02897 41.5353 3.2588C41.5353 5.78361 43.6954 6.38055 45.8091 6.63373C46.7382 6.73361 47.9692 6.97285 47.9692 7.89494C47.9692 9.0912 46.3503 9.18409 45.8555 9.18409C44.5595 9.18409 43.5654 8.63358 43.1937 7.71148L43.0892 7.45136L42.8406 7.58139L41.2217 8.41991L41.015 8.52678L41.1033 8.74278C41.8396 10.5545 43.3842 11.4325 45.83 11.4325C48.6568 11.4325 50.4128 10.076 50.4128 7.89494C50.4128 5.26099 48.3107 4.6385 46.0391 4.35978L46.0274 4.35512ZM48.7264 5.34461C48.9773 5.48398 49.205 5.64656 49.4001 5.844C49.2073 5.64656 48.9773 5.48398 48.7264 5.34461ZM44.3829 4.24364C44.2784 4.19486 44.1832 4.14143 44.0996 4.08104C44.1832 4.14143 44.2784 4.19718 44.3829 4.24364ZM42.5457 1.37738C42.39 1.53301 42.253 1.70489 42.1415 1.89303C42.2553 1.70257 42.39 1.53068 42.5457 1.37738ZM41.8767 2.51785C41.8163 2.74547 41.7838 2.98936 41.7838 3.25415C41.7838 2.98936 41.8163 2.74315 41.8767 2.51785ZM46.3271 6.44327C46.485 6.47114 46.6383 6.50133 46.7823 6.5385C46.6383 6.50133 46.4873 6.47114 46.3271 6.44327ZM41.6537 9.29096C41.5329 9.09353 41.4238 8.87746 41.3262 8.64056L42.9452 7.80205C43.4004 8.93555 44.5943 9.43496 45.844 9.43496C47.0936 9.43496 48.2131 9.00755 48.2131 7.89035C48.2131 9.00988 47.0657 9.43496 45.844 9.43496C44.6222 9.43496 43.4004 8.93555 42.9452 7.80205L41.3262 8.64056C41.4215 8.8752 41.5306 9.0912 41.6537 9.29096ZM47.4606 10.9842C47.716 10.9192 47.9622 10.8402 48.1946 10.7404C47.9646 10.8379 47.7184 10.9192 47.4606 10.9842Z" fill="white"/>
<path d="M52.0293 0.349609H51.7738V0.60511V10.9064V11.162H52.0293H53.9572H54.2127V10.9064V0.60511V0.349609H53.9572H52.0293Z" fill="white"/>
<path d="M56.0175 0.349609H55.762V0.60511V2.37039V2.62589H56.0175H59.0301V10.9064V11.162H59.2856H61.2274H61.4829V10.9064V2.62589H64.4955H64.751V2.37039V0.60511V0.349609H64.4955H56.0175Z" fill="white"/>
<path d="M74.7388 0.365234H74.6088L74.5321 0.469758L71.5149 4.61584L68.4977 0.469758L68.421 0.365234H65.7986V11.1799H68.2515V4.21633L71.0712 8.07438L71.1479 8.17892H71.789L71.8656 8.07671L74.762 4.21633V11.1822H77.2149V0.365234H74.7365H74.7388Z" fill="white"/>
<path d="M83.2608 4.35512C81.7696 4.1786 81.189 3.88594 81.189 3.31454C81.189 2.61772 81.8904 2.20195 83.068 2.20195C84.1133 2.20195 84.9936 2.72922 85.2933 3.22628L85.4164 3.43068L85.63 3.32151L87.1746 2.52714L87.3976 2.41332L87.2861 2.18802C86.5823 0.757214 85.1051 0 83.01 0C80.8987 0.0162592 78.7687 1.02897 78.7687 3.2588C78.7687 5.78361 80.9288 6.38055 83.0425 6.63373C83.9716 6.73361 85.2026 6.97285 85.2026 7.89494C85.2026 9.0912 83.5837 9.18409 83.0889 9.18409C81.7929 9.18409 80.7988 8.63358 80.4271 7.71148L80.3226 7.45136L80.074 7.58139L78.4551 8.41991L78.2484 8.52678L78.3366 8.74278C79.073 10.5545 80.6176 11.4325 83.0634 11.4325C85.8902 11.4325 87.6462 10.076 87.6462 7.89494C87.6462 5.26099 85.5441 4.6385 83.2725 4.35978L83.2608 4.35512ZM85.9598 5.34229C86.2107 5.48166 86.4383 5.64424 86.6335 5.84168C86.4407 5.64424 86.2107 5.48166 85.9598 5.34229ZM81.6163 4.24132C81.5118 4.19254 81.4166 4.13911 81.333 4.07872C81.4166 4.13911 81.5118 4.19486 81.6163 4.24132ZM87.0539 2.29718C86.81 1.80012 86.4801 1.41455 86.0923 1.11724C86.4801 1.41222 86.81 1.80012 87.0539 2.29718ZM79.7791 1.37506C79.6234 1.53068 79.4864 1.70257 79.3749 1.89071C79.4887 1.70024 79.6234 1.52836 79.7791 1.37506ZM79.1101 2.51552C79.0497 2.74315 79.0172 2.98704 79.0172 3.25183C79.0172 2.98704 79.0497 2.74083 79.1101 2.51552ZM83.5605 6.44094C83.7184 6.46882 83.8717 6.49901 84.0158 6.53617C83.8717 6.49901 83.7208 6.46882 83.5605 6.44094ZM78.8871 9.28864C78.7663 9.0912 78.6572 8.8752 78.5596 8.63824L80.1786 7.79972C80.6338 8.93322 81.8277 9.43263 83.0774 9.43263C84.327 9.43263 85.4465 9.00522 85.4465 7.88802C85.4465 9.00755 84.2991 9.43263 83.0774 9.43263C81.8556 9.43263 80.6338 8.93322 80.1786 7.79972L78.5596 8.63824C78.6549 8.87287 78.7641 9.08887 78.8871 9.28864ZM84.694 10.9819C84.9495 10.9168 85.1957 10.8379 85.4279 10.738C85.198 10.8356 84.9518 10.9168 84.694 10.9819Z" fill="white"/>
</g>
<g clip-path="url(#clip1_1703_15262)">
<path d="M9.80687 7.36302V5.38112C9.80687 4.52457 9.13644 3.83203 8.31052 3.83203C7.48459 3.83203 6.81421 4.52608 6.81421 5.38112V7.36302L8.31052 8.44893L9.80687 7.36302Z" fill="white"/>
<path d="M1.88513 4.16805C1.34381 3.7747 0.597114 3.91139 0.217162 4.47179C-0.162789 5.03219 -0.0307593 5.80523 0.510558 6.19855C1.05188 6.59192 1.79858 6.45521 2.17853 5.89481C2.55848 5.33441 2.42645 4.5614 1.88513 4.16805Z" fill="white"/>
<path d="M8.31048 2.58987C8.97158 2.58987 9.50755 2.03502 9.50755 1.35059C9.50755 0.666165 8.97158 0.111328 8.31048 0.111328C7.64937 0.111328 7.1134 0.666165 7.1134 1.35059C7.1134 2.03502 7.64937 2.58987 8.31048 2.58987Z" fill="white"/>
<path d="M16.4039 4.47375C16.0239 3.91334 15.2772 3.77666 14.7359 4.17C14.1946 4.56335 14.0625 5.33635 14.4425 5.8968C14.8224 6.4572 15.5691 6.59386 16.1105 6.20054C16.6518 5.80717 16.7838 5.03414 16.4039 4.47375Z" fill="white"/>
<path d="M13.461 6.60668C12.9872 5.90505 12.0527 5.73493 11.3765 6.2255L9.80825 7.36301V10.3397C9.80825 10.3397 9.80825 10.3488 9.80825 10.3534C9.81119 9.86127 9.58966 9.37532 9.1701 9.07005L8.31194 8.44735L7.45374 9.07005C7.03418 9.37379 6.81265 9.85975 6.81559 10.3534C6.81559 10.3488 6.81559 10.3442 6.81559 10.3397V7.36301L5.24737 6.2255C4.56964 5.73493 3.63662 5.90505 3.16278 6.60668C2.68895 7.30832 2.85325 8.27422 3.531 8.76479L7.45521 11.6093C7.45521 11.6093 7.46105 11.6139 7.46399 11.6154C7.45521 11.6093 7.44785 11.6017 7.43907 11.5956C7.45374 11.6063 7.46694 11.6169 7.4816 11.626C7.5051 11.6427 7.52855 11.6579 7.55204 11.6716C7.55347 11.6716 7.55494 11.6731 7.55641 11.6746C7.57549 11.6853 7.5931 11.6974 7.61218 11.7065C7.63416 11.7187 7.65766 11.7308 7.67964 11.7414C7.70313 11.7521 7.72658 11.7627 7.75008 11.7733C7.76916 11.7809 7.78967 11.7885 7.81022 11.7961C7.83661 11.8052 7.86447 11.8159 7.89091 11.8235C7.90558 11.828 7.92025 11.8311 7.93344 11.8356C7.93786 11.8356 7.9437 11.8386 7.94811 11.8402C7.97597 11.8478 8.00384 11.8538 8.03175 11.8599C8.042 11.8614 8.05372 11.863 8.06398 11.866C8.07575 11.8675 8.086 11.869 8.09773 11.8721C8.12269 11.8751 8.14761 11.8797 8.17111 11.8812C8.18283 11.8812 8.19456 11.8827 8.20628 11.8842C8.22242 11.8842 8.24003 11.8857 8.25617 11.8872C8.27378 11.8872 8.29139 11.8888 8.31047 11.8888C8.32804 11.8888 8.34565 11.8888 8.36473 11.8872C8.38234 11.8872 8.39848 11.8872 8.41462 11.8842C8.42634 11.8842 8.43807 11.8842 8.44984 11.8812C8.47476 11.8781 8.49968 11.8751 8.52317 11.8721C8.5349 11.8705 8.54515 11.869 8.55692 11.866C8.56718 11.8645 8.5789 11.863 8.5892 11.8599C8.61706 11.8538 8.64493 11.8478 8.67279 11.8402C8.6772 11.8402 8.68309 11.8371 8.68746 11.8356C8.70213 11.8311 8.71679 11.828 8.73003 11.8235C8.7579 11.8159 8.78429 11.8052 8.81068 11.7961C8.83124 11.7885 8.85032 11.7809 8.87082 11.7733C8.89432 11.7627 8.91777 11.7521 8.94126 11.7414C8.96471 11.7308 8.98674 11.7187 9.01019 11.7065C9.02927 11.6959 9.04835 11.6853 9.06596 11.6746C9.06743 11.6746 9.0689 11.6731 9.07037 11.6716C9.09382 11.6564 9.11874 11.6412 9.14224 11.626C9.15691 11.6154 9.1701 11.6063 9.18477 11.5956C9.17599 11.6017 9.16863 11.6093 9.15985 11.6154C9.16279 11.6139 9.16569 11.6123 9.16863 11.6093L13.0928 8.76479C13.7706 8.27422 13.9349 7.30679 13.461 6.60668ZM7.08406 11.2296C7.08406 11.2296 7.08112 11.2251 7.07965 11.2221C7.08843 11.2357 7.09873 11.2479 7.10752 11.26C7.1002 11.2494 7.09138 11.2403 7.08406 11.2296ZM9.53688 11.2296C9.52952 11.2403 9.52074 11.2494 9.51339 11.26C9.52217 11.2463 9.53247 11.2342 9.54125 11.2221C9.53978 11.2251 9.53831 11.2266 9.53688 11.2296Z" fill="white"/>
</g>
<defs>
<clipPath id="clip0_1703_15262">
<rect width="67.0588" height="12" fill="white" transform="translate(20.8234)"/>
</clipPath>
<clipPath id="clip1_1703_15262">
<rect width="16.9412" height="12" fill="white"/>
</clipPath>
</defs>
</svg>
