<svg width="234" height="54" viewBox="0 0 234 54" fill="none" xmlns="http://www.w3.org/2000/svg">
<g id="Group 1321316229">
<g id="Group 11">
<path id="Vector" d="M135.669 53.7869C135.442 53.7869 135.209 53.7602 134.982 53.7068C134.042 53.4868 133.295 52.8399 132.928 51.9996C132.194 50.4724 117.582 21.2753 111.967 10.058C111.227 8.57751 111.827 6.7702 113.307 6.02994C114.788 5.28968 116.595 5.88989 117.336 7.37042C117.336 7.37042 122.591 17.8675 127.846 28.3779C130.474 33.6331 133.101 38.8883 135.075 42.8363C135.289 43.2698 135.495 43.6699 135.682 44.0567L154.009 7.37709C154.749 5.89656 156.549 5.28968 158.037 6.03661C159.517 6.77687 160.117 8.57751 159.377 10.0647L138.356 52.1329C137.843 53.1666 136.789 53.7935 135.675 53.7935L135.669 53.7869Z" fill="white"/>
<path id="Vector_2" d="M105.178 8.76864C105.178 7.1112 103.834 5.76758 102.177 5.76758C100.519 5.76758 99.1755 7.1112 99.1755 8.76864V50.7835C99.1755 52.441 100.519 53.7846 102.177 53.7846C103.834 53.7846 105.178 52.441 105.178 50.7835V8.76864Z" fill="white"/>
<path id="Vector_3" d="M201.916 21.0608C201.916 19.3003 200.489 17.873 198.728 17.873C196.967 17.873 195.54 19.3003 195.54 21.0608V50.598C195.54 52.3586 196.967 53.7858 198.728 53.7858C200.489 53.7858 201.916 52.3586 201.916 50.598V21.0608Z" fill="white"/>
<path id="Vector_4" d="M41.1344 6.64789C40.5875 6.10103 39.8406 5.76758 39.0136 5.76758C37.3531 5.76758 36.0126 7.10805 36.0126 8.76864V32.7772C36.0126 41.0534 29.2835 47.7825 21.0073 47.7825C12.731 47.7825 6.00194 41.0534 6.00194 32.7772V8.76864C6.00194 7.94168 5.66849 7.18808 5.12163 6.64789C4.57477 6.10103 3.82784 5.76758 3.00088 5.76758C1.34029 5.76758 -0.000183105 7.10805 -0.000183105 8.76864V32.7772C-0.000183105 38.5059 2.28729 43.701 6.00194 47.489C9.81663 51.3704 15.1318 53.7846 21.0073 53.7846C26.8827 53.7846 32.1979 51.3704 36.0126 47.489C39.7272 43.701 42.0147 38.5059 42.0147 32.7772V8.76864C42.0147 7.94168 41.6813 7.18808 41.1344 6.64789Z" fill="white"/>
<path id="Vector_5" d="M89.2059 52.9043C88.659 53.4511 87.9121 53.7846 87.0851 53.7846C85.4245 53.7846 84.0841 52.4441 84.0841 50.7835V26.775C84.0841 18.4988 77.355 11.7697 69.0787 11.7697C60.8025 11.7697 54.0734 18.4988 54.0734 26.775V50.7835C54.0734 51.6105 53.74 52.3641 53.1931 52.9043C52.6462 53.4511 51.8993 53.7846 51.0724 53.7846C49.4118 53.7846 48.0713 52.4441 48.0713 50.7835V26.775C48.0713 21.0463 50.3588 15.8512 54.0734 12.0631C57.8881 8.18177 63.2033 5.76758 69.0787 5.76758C74.9541 5.76758 80.2694 8.18177 84.0841 12.0631C87.7987 15.8512 90.0862 21.0463 90.0862 26.775V50.7835C90.0862 51.6105 89.7527 52.3641 89.2059 52.9043Z" fill="white"/>
<path id="Vector_6" d="M230.153 47.7836C216.668 47.7836 215.214 35.2191 215.214 29.8172C215.214 29.7572 215.201 29.7039 215.194 29.6505C215.194 29.5972 215.214 29.5438 215.214 29.4838V22.4346H227.545C229.206 22.4346 230.546 21.0941 230.546 19.4335C230.546 17.773 229.206 16.4325 227.545 16.4325H215.214V3.00106C215.214 1.34047 213.874 0 212.213 0C210.552 0 209.212 1.34047 209.212 3.00106V29.4838C209.212 29.5438 209.225 29.5972 209.232 29.6505C209.232 29.7039 209.212 29.7572 209.212 29.8172C209.212 44.6025 217.235 53.7857 230.153 53.7857C231.813 53.7857 233.154 52.4452 233.154 50.7847C233.154 49.1241 231.813 47.7836 230.153 47.7836Z" fill="white"/>
<path id="Vector_7" d="M186.757 20.9874H171.871C173.065 6.0088 183.295 6.00213 186.797 6.00213C188.457 6.00213 189.798 4.66165 189.798 3.00106C189.798 1.34048 188.457 0 186.797 0C173.225 0 165.749 8.51635 165.749 23.9685C165.749 24.0285 165.763 24.0819 165.769 24.1419C165.769 24.2019 165.749 24.2553 165.749 24.3153V50.878C165.749 52.5386 167.09 53.8791 168.75 53.8791C170.411 53.8791 171.751 52.5386 171.751 50.878V26.9829H186.757C188.417 26.9829 189.758 25.6424 189.758 23.9818C189.758 22.3212 188.417 20.9808 186.757 20.9808V20.9874Z" fill="white"/>
<path id="Vector_8" d="M198.728 13.7975C200.489 13.7975 201.916 12.3702 201.916 10.6097C201.916 8.8491 200.489 7.42188 198.728 7.42188C196.967 7.42188 195.54 8.8491 195.54 10.6097C195.54 12.3702 196.967 13.7975 198.728 13.7975Z" fill="white"/>
</g>
</g>
</svg>
