<svg width="33" height="32" viewBox="0 0 33 32" fill="none" xmlns="http://www.w3.org/2000/svg">
<g id="Component 19" style="mix-blend-mode:screen">
<g id="Group">
<path id="Vector" d="M24.5265 15.6668L16.7591 11.0702C16.3866 10.849 15.9188 10.849 15.5418 11.0702L7.77435 15.6668C7.50181 15.8294 7.36554 16.1048 7.36554 16.3847V20.7691C7.36554 21.0491 7.50181 21.3245 7.77435 21.487L15.5418 26.0836C15.9142 26.3049 16.3821 26.3049 16.7591 26.0836L24.5265 21.487C24.799 21.3245 24.9353 21.0491 24.9353 20.7691V16.3847C24.9353 16.1048 24.799 15.8294 24.5265 15.6668Z" fill="url(#paint0_linear_1703_16080)"/>
<path id="Vector_2" opacity="0.7" d="M27.6334 14.6427L16.9362 20.9686C16.4184 21.2757 15.7779 21.2757 15.2601 20.9686L4.5629 14.6427C3.80887 14.1957 3.80887 13.112 4.5629 12.6695L15.2601 6.34356C15.7779 6.03652 16.4184 6.03652 16.9317 6.34356L27.6289 12.6695C28.3829 13.1165 28.3829 14.2002 27.6289 14.6427H27.6334Z" fill="url(#paint1_linear_1703_16080)"/>
</g>
</g>
<defs>
<linearGradient id="paint0_linear_1703_16080" x1="16.1504" y1="28.3886" x2="16.1504" y2="9.0858" gradientUnits="userSpaceOnUse">
<stop stop-color="#313135"/>
<stop offset="0.59" stop-color="#E4E4E7"/>
</linearGradient>
<linearGradient id="paint1_linear_1703_16080" x1="12.9117" y1="20.2236" x2="21.4679" y2="2.3843" gradientUnits="userSpaceOnUse">
<stop offset="0.23" stop-color="#E4E4E7"/>
<stop offset="0.75" stop-color="#313135"/>
</linearGradient>
</defs>
</svg>
