<svg width="100" height="24" viewBox="0 0 100 24" fill="none" xmlns="http://www.w3.org/2000/svg">
<g id="Group 1321316229">
<g id="Group 11">
<path id="Vector" d="M57.8101 23.463C57.7137 23.463 57.6144 23.4517 57.5179 23.429C57.1179 23.3354 56.8001 23.0602 56.6441 22.7027C56.332 22.053 50.1159 9.63219 47.7271 4.8602C47.4122 4.23037 47.6675 3.46151 48.2974 3.1466C48.9272 2.83168 49.696 3.08702 50.011 3.71685C50.011 3.71685 52.2466 8.18244 54.4822 12.6537C55.6 14.8893 56.7178 17.125 57.5576 18.8045C57.6484 18.9889 57.7364 19.1592 57.8158 19.3237L65.6121 3.71969C65.9271 3.08985 66.6931 2.83168 67.3257 3.14943C67.9556 3.46435 68.2109 4.23037 67.896 4.86304L58.9535 22.7594C58.735 23.1992 58.2868 23.4659 57.813 23.4659L57.8101 23.463Z" fill="white"/>
<path id="Vector_2" d="M44.839 4.31185C44.839 3.60675 44.2674 3.03516 43.5623 3.03516C42.8572 3.03516 42.2856 3.60675 42.2856 4.31185V22.1855C42.2856 22.8906 42.8572 23.4622 43.5623 23.4622C44.2674 23.4622 44.839 22.8906 44.839 22.1855V4.31185Z" fill="white"/>
<path id="Vector_3" d="M85.9926 9.53972C85.9926 8.79075 85.3854 8.18359 84.6365 8.18359C83.8875 8.18359 83.2803 8.79075 83.2803 9.53972V22.1052C83.2803 22.8542 83.8875 23.4613 84.6365 23.4613C85.3854 23.4613 85.9926 22.8542 85.9926 22.1052V9.53972Z" fill="white"/>
<path id="Vector_4" d="M17.5943 3.40965C17.3616 3.17701 17.0439 3.03516 16.6921 3.03516C15.9857 3.03516 15.4154 3.60541 15.4154 4.31185V14.5254C15.4154 18.0462 12.5528 20.9088 9.03194 20.9088C5.5111 20.9088 2.64848 18.0462 2.64848 14.5254V4.31185C2.64848 3.96005 2.50662 3.63946 2.27398 3.40965C2.04134 3.17701 1.72358 3.03516 1.37178 3.03516C0.665349 3.03516 0.0950928 3.60541 0.0950928 4.31185V14.5254C0.0950928 16.9625 1.06822 19.1725 2.64848 20.784C4.27129 22.4352 6.53246 23.4622 9.03194 23.4622C11.5314 23.4622 13.7926 22.4352 15.4154 20.784C16.9957 19.1725 17.9688 16.9625 17.9688 14.5254V4.31185C17.9688 3.96005 17.8269 3.63946 17.5943 3.40965Z" fill="white"/>
<path id="Vector_5" d="M38.0443 23.0877C37.8117 23.3204 37.4939 23.4622 37.1421 23.4622C36.4357 23.4622 35.8654 22.892 35.8654 22.1855V11.972C35.8654 8.45117 33.0028 5.58854 29.4819 5.58854C25.9611 5.58854 23.0985 8.45117 23.0985 11.972V22.1855C23.0985 22.5373 22.9566 22.8579 22.724 23.0877C22.4914 23.3204 22.1736 23.4622 21.8218 23.4622C21.1154 23.4622 20.5451 22.892 20.5451 22.1855V11.972C20.5451 9.53494 21.5182 7.32484 23.0985 5.71337C24.7213 4.06218 26.9825 3.03516 29.4819 3.03516C31.9814 3.03516 34.2426 4.06218 35.8654 5.71337C37.4457 7.32484 38.4188 9.53494 38.4188 11.972V22.1855C38.4188 22.5373 38.2769 22.8579 38.0443 23.0877Z" fill="white"/>
<path id="Vector_6" d="M98.0048 20.9098C92.2682 20.9098 91.6497 15.5647 91.6497 13.2667C91.6497 13.2411 91.644 13.2184 91.6412 13.1957C91.6412 13.1731 91.6497 13.1504 91.6497 13.1248V10.126H96.8955C97.6019 10.126 98.1722 9.55576 98.1722 8.84932C98.1722 8.14288 97.6019 7.57263 96.8955 7.57263H91.6497V1.85872C91.6497 1.15229 91.0794 0.582031 90.373 0.582031C89.6666 0.582031 89.0963 1.15229 89.0963 1.85872V13.1248C89.0963 13.1504 89.102 13.1731 89.1048 13.1957C89.1048 13.2184 89.0963 13.2411 89.0963 13.2667C89.0963 19.5565 92.5093 23.4632 98.0048 23.4632C98.7112 23.4632 99.2815 22.8929 99.2815 22.1865C99.2815 21.4801 98.7112 20.9098 98.0048 20.9098Z" fill="white"/>
<path id="Vector_7" d="M79.544 9.51036H73.2116C73.7194 3.13825 78.0715 3.13542 79.561 3.13542C80.2674 3.13542 80.8377 2.56516 80.8377 1.85872C80.8377 1.15229 80.2674 0.582031 79.561 0.582031C73.7875 0.582031 70.6071 4.205 70.6071 10.7785C70.6071 10.8041 70.6128 10.8268 70.6156 10.8523C70.6156 10.8778 70.6071 10.9005 70.6071 10.9261V22.2262C70.6071 22.9327 71.1774 23.5029 71.8838 23.5029C72.5902 23.5029 73.1605 22.9327 73.1605 22.2262V12.0609H79.544C80.2504 12.0609 80.8207 11.4907 80.8207 10.7842C80.8207 10.0778 80.2504 9.50753 79.544 9.50753V9.51036Z" fill="white"/>
<path id="Vector_8" d="M84.6365 6.4525C85.3854 6.4525 85.9926 5.84534 85.9926 5.09636C85.9926 4.34739 85.3854 3.74023 84.6365 3.74023C83.8875 3.74023 83.2803 4.34739 83.2803 5.09636C83.2803 5.84534 83.8875 6.4525 84.6365 6.4525Z" fill="white"/>
</g>
</g>
</svg>
