<svg width="33" height="32" viewBox="0 0 33 32" fill="none" xmlns="http://www.w3.org/2000/svg">
<g id="Component 19">
<g id="Group">
<path id="Vector" d="M24.2121 16.5911L17.1179 12.471C16.7777 12.2727 16.3504 12.2727 16.006 12.471L8.91183 16.5911C8.66291 16.7368 8.53845 16.9837 8.53845 17.2346V21.1645C8.53845 21.4154 8.66291 21.6623 8.91183 21.808L16.006 25.9281C16.3462 26.1264 16.7735 26.1264 17.1179 25.9281L24.2121 21.808C24.461 21.6623 24.5855 21.4154 24.5855 21.1645V17.2346C24.5855 16.9837 24.461 16.7368 24.2121 16.5911Z" fill="#494950"/>
<path id="Vector_2" d="M28.0645 14.9298L17.3998 21.2557C16.8835 21.5628 16.245 21.5628 15.7287 21.2557L5.06393 14.9298C4.31219 14.4828 4.31219 13.3991 5.06393 12.9566L15.7287 6.63067C16.245 6.32363 16.8835 6.32363 17.3952 6.63067L28.06 12.9566C28.8118 13.4036 28.8118 14.4873 28.06 14.9298H28.0645Z" fill="#313135"/>
</g>
</g>
</svg>
